HIERARCHY
ROOT root
{
	OFFSET	0	13.1	24.9
	CHANNELS 6  Xposition Yposition Zposition Xrotation Yrotation Zrotation
	JOINT spine_1
	{
		OFFSET	0	9.99999	0
		CHANNELS 3  Xrotation Yrotation Zrotation
		JOINT spine_2
		{
			OFFSET	0	112	-10
			CHANNELS 3  Xrotation Yrotation Zrotation
			JOINT spine_3
			{
				OFFSET	0	206.5	19.3
				CHANNELS 3  Xrotation Yrotation Zrotation
				JOINT spine_4
				{
					OFFSET	0	110.4	14.6
					CHANNELS 3  Xrotation Yrotation Zrotation
					JOINT neck_1
					{
						OFFSET	0	71.8	-50.3
						CHANNELS 3  Xrotation Yrotation Zrotation
						JOINT neck_2
						{
							OFFSET	0	86.2	-25.8
							CHANNELS 3  Xrotation Yrotation Zrotation
							JOINT head_ee
							{
								OFFSET	0	179.8	-8.7
								CHANNELS 3  Xrotation Yrotation Zrotation
								End Site
								{
									OFFSET	1	0	0
								}
							}
						}
					}
					JOINT left_clavicle
					{
						OFFSET	-43.2	22.4	-70.8
						CHANNELS 3  Xrotation Yrotation Zrotation
						JOINT left_shoulder
						{
							OFFSET	-93.9	-5.79999	48.7
							CHANNELS 3  Xrotation Yrotation Zrotation
							JOINT left_elbow
							{
								OFFSET	-291.4	-30.8	15.2
								CHANNELS 3  Xrotation Yrotation Zrotation
								JOINT left_lowarm_twist
								{
									OFFSET	-110.7	-3.89999	13.6
									CHANNELS 3  Xrotation Yrotation Zrotation
									JOINT left_hand
									{
										OFFSET	-110.7	-3.89999	13.6
										CHANNELS 3  Xrotation Yrotation Zrotation
										JOINT left_ee
										{
											OFFSET	-80.8	-5.10001	12.1
											CHANNELS 3  Xrotation Yrotation Zrotation
											End Site
											{
												OFFSET	1	0	0
											}
										}
									}
								}
							}
						}
					}
					JOINT right_clavicle
					{
						OFFSET	43.2	22.4	-70.8
						CHANNELS 3  Xrotation Yrotation Zrotation
						JOINT right_shoulder
						{
							OFFSET	93.9	-5.79999	48.7
							CHANNELS 3  Xrotation Yrotation Zrotation
							JOINT right_elbow
							{
								OFFSET	291.4	-30.8	15.2
								CHANNELS 3  Xrotation Yrotation Zrotation
								JOINT right_lowarm_twist
								{
									OFFSET	110.7	-3.89999	13.6
									CHANNELS 3  Xrotation Yrotation Zrotation
									JOINT right_hand
									{
										OFFSET	110.7	-3.89999	13.6
										CHANNELS 3  Xrotation Yrotation Zrotation
										JOINT right_ee
										{
											OFFSET	80.8	-5.10001	12.1
											CHANNELS 3  Xrotation Yrotation Zrotation
											End Site
											{
												OFFSET	1	0	0
											}
										}
									}
								}
							}
						}
					}
				}
			}
		}
	}
	JOINT left_hip
	{
		OFFSET	-82.8	-127.5	0.300001
		CHANNELS 3  Xrotation Yrotation Zrotation
		JOINT left_knee
		{
			OFFSET	-28.2	-396.7	2.2
			CHANNELS 3  Xrotation Yrotation Zrotation
			JOINT left_ankle
			{
				OFFSET	-11.7	-411.3	35.4
				CHANNELS 3  Xrotation Yrotation Zrotation
				JOINT left_toes
				{
					OFFSET	0	-60	-88.6
					CHANNELS 3  Xrotation Yrotation Zrotation
					JOINT left_foot_ee
					{
						OFFSET	-22.5	-16.5	-42.2
						CHANNELS 3  Xrotation Yrotation Zrotation
						End Site
						{
							OFFSET	1	0	0
						}
					}
				}
			}
		}
	}
	JOINT right_hip
	{
		OFFSET	82.8	-127.5	0.300001
		CHANNELS 3  Xrotation Yrotation Zrotation
		JOINT right_knee
		{
			OFFSET	28.2	-396.7	2.2
			CHANNELS 3  Xrotation Yrotation Zrotation
			JOINT right_ankle
			{
				OFFSET	11.7	-411.3	35.4
				CHANNELS 3  Xrotation Yrotation Zrotation
				JOINT right_toes
				{
					OFFSET	0	-60	-88.6
					CHANNELS 3  Xrotation Yrotation Zrotation
					JOINT right_foot_ee
					{
						OFFSET	22.5	-16.5	-42.2
						CHANNELS 3  Xrotation Yrotation Zrotation
						End Site
						{
							OFFSET	1	0	0
						}
					}
				}
			}
		}
	}
}
MOTION
Frames: 10
Frame Time: 0.02
2525.95406435 730.177 -1496.91208496 -5.63903209082 81.5003994538 -2.00272540311 2.62679 0.947991 3.61139 2.63376 0.716427 3.66429 2.67845 0.105462 3.73209 2.65968 0.693152 3.66876 -17.9937 11.0139 -1.41704 -18.6041 21.9427 3.0523 -0.0 0.0 -0.0 -12.7806 21.1979 -16.7483 -2.29125 -32.1524 80.4292 1.0925 -28.4211 0.276666 -15.0548 -0.766535 1.76023 5.25055 -28.1852 21.9341 -0.0 0.0 -0.0 11.0933 2.87917 -22.095 -9.24836 22.8595 -70.0392 1.98708 44.5429 -0.813872 24.9175 -0.195286 3.15201 -0.586861 -21.2053 -5.05606 0.0 0.0 0.0 9.58248 5.35355 1.48777 -35.8057 -0.221715 5.40222 36.3259 1.10854 -4.53808 -38.0265 0.0 0.0 -0.0 0.0 -0.0 10.4949 12.4416 1.50277 -10.7373 -0.291037 -1.61972 34.0782 -3.25924 4.31188 -27.2398 0.0 0.0 0.0 0.0 0.0 
2521.21953514 732.497 -1478.08578975 -17.9015195498 84.5311573133 10.6382205535 2.73242 0.54211 3.69296 2.73995 0.306185 3.71992 2.7581 -0.304044 3.72009 2.7389 0.286872 3.72145 -16.1715 10.0874 -3.55361 -16.6179 21.3669 0.318601 -0.0 0.0 -0.0 -12.2219 21.9895 -15.4316 -3.99751 -32.9185 79.6028 0.737361 -20.0656 0.130454 -15.0858 -0.768582 1.76363 5.20581 -27.4449 22.1137 -0.0 0.0 -0.0 11.2062 2.85326 -22.3365 -7.79616 23.7924 -69.4981 2.22375 47.7609 -0.984622 25.5133 -0.183101 3.22715 -0.174209 -18.2199 -6.33351 0.0 0.0 0.0 12.0667 2.44663 1.74157 -30.9907 0.00484783 4.69841 37.8646 5.30413 -4.66809 -38.1745 0.0 0.0 -0.0 0.0 -0.0 11.6689 9.34131 1.49454 -9.68099 -0.275937 -1.45834 32.9312 -5.33741 4.19336 -31.2931 0.0 0.0 0.0 0.0 0.0 
2517.68526553 736.967 -1464.25776036 -58.9147004075 87.0118613382 51.5415280297 2.84828 0.356371 3.85482 2.85654 0.110545 3.86965 2.86172 -0.515001 3.83687 2.84119 0.0969546 3.87002 -15.8242 10.0197 -3.09175 -16.2422 20.9788 0.656943 -0.0 0.0 -0.0 -11.1226 21.4543 -13.931 -5.04425 -32.733 78.8531 0.466966 -13.0248 0.0533069 -15.6223 -0.80432 1.82228 5.37317 -27.2406 23.386 -0.0 0.0 -0.0 11.3095 3.71948 -22.5986 -7.48 24.3468 -68.8172 2.51206 51.2064 -1.2039 24.2991 -0.207105 3.07391 -0.0230641 -15.7886 -6.307 0.0 0.0 0.0 13.7849 -0.221224 1.43556 -24.6721 0.211002 3.7511 38.1638 3.62632 -4.697 -38.374 0.0 0.0 -0.0 0.0 -0.0 12.5705 8.32411 1.88961 -10.1229 -0.282617 -1.52582 33.8502 -5.20321 4.2856 -31.8095 0.0 0.0 0.0 0.0 0.0 
2514.02404906 732.246 -1452.0168118 -104.319373611 86.9202305888 97.3975470922 3.02908 0.305808 3.84251 3.03729 0.0608642 3.85416 3.03869 -0.549836 3.81528 3.01839 0.0591529 3.85419 -16.8489 9.79534 -3.57304 -17.304 20.8012 0.317685 -0.0 0.0 -0.0 -10.9592 21.5303 -13.6375 -4.99279 -35.7467 78.598 0.200965 -5.68532 0.00997881 -17.9984 -0.969143 2.07794 5.37523 -24.5586 25.1487 -0.0 0.0 -0.0 11.2848 3.72891 -22.5455 -5.84463 24.6554 -68.2634 2.81209 54.3167 -1.44285 25.7513 -0.178014 3.25713 0.574044 -13.7964 -9.28786 0.0 0.0 0.0 13.9268 -3.33086 1.68198 -18.7692 0.308255 2.85093 37.1152 9.87487 -4.61366 -38.0034 0.0 0.0 -0.0 0.0 -0.0 13.0821 7.53314 1.67746 -10.0998 -0.28228 -1.52228 36.0023 -6.12838 4.49503 -33.5996 0.0 0.0 0.0 0.0 0.0 
2457.05449163 743.29 -1476.45015558 -51.2859415652 78.8204753519 46.0841806639 3.9773 0.822436 3.8408 3.98532 0.576559 3.88526 4.01981 0.0229785 3.92767 3.99886 0.642521 3.87491 -8.65517 8.97651 -7.93215 -8.52405 22.3031 -5.79943 -0.0 0.0 -0.0 -6.83634 12.8346 -9.99393 -7.24213 -40.8008 70.1345 0.367869 -10.328 0.0332456 -31.7306 -2.11767 3.40575 5.35141 15.1778 44.1686 -0.0 0.0 -0.0 9.53298 -0.965108 -18.6516 -12.6711 21.1274 -69.606 2.61082 52.2798 -1.28145 19.2847 -0.271689 2.43685 2.29272 -2.57616 -16.5195 0.0 0.0 0.0 12.5254 -15.7865 1.71388 -4.34814 0.154446 0.649275 34.7241 26.174 -4.66694 -39.3406 0.0 0.0 -0.0 0.0 -0.0 17.2043 6.10822 1.05771 -12.7796 -0.311781 -1.93238 34.3437 -6.43166 4.33466 -39.9314 0.0 0.0 0.0 0.0 0.0 
2457.05129487 743.29 -1476.00261894 -51.5815697532 78.8669607797 46.3855028651 3.9773 0.822436 3.8408 3.98532 0.576559 3.88526 4.01981 0.0229785 3.92767 3.99886 0.642521 3.87491 -8.65517 8.97651 -7.93215 -8.52405 22.3031 -5.79943 -0.0 0.0 -0.0 -6.83634 12.8346 -9.99393 -7.24213 -40.8008 70.1345 0.367869 -10.328 0.0332456 -31.7306 -2.11767 3.40575 5.35141 15.1778 44.1686 -0.0 0.0 -0.0 9.53298 -0.965108 -18.6516 -12.6711 21.1274 -69.606 2.61082 52.2798 -1.28145 19.2847 -0.271689 2.43685 2.29272 -2.57616 -16.5195 0.0 0.0 0.0 12.5254 -15.7865 1.71388 -4.34814 0.154446 0.649275 34.7241 26.174 -4.66694 -39.3406 0.0 0.0 -0.0 0.0 -0.0 17.2043 6.10822 1.05771 -12.7796 -0.311781 -1.93238 34.3437 -6.43166 4.33466 -39.9314 0.0 0.0 0.0 0.0 0.0 
2457.04419482 743.29 -1474.08824468 -52.8743726368 79.0623386858 47.7026569217 3.9773 0.822436 3.8408 3.98532 0.576559 3.88526 4.01981 0.0229785 3.92767 3.99886 0.642521 3.87491 -8.65517 8.97651 -7.93215 -8.52405 22.3031 -5.79943 -0.0 0.0 -0.0 -6.83634 12.8346 -9.99393 -7.24213 -40.8008 70.1345 0.367869 -10.328 0.0332456 -31.7306 -2.11767 3.40575 5.35141 15.1778 44.1686 -0.0 0.0 -0.0 9.53298 -0.965108 -18.6516 -12.6711 21.1274 -69.606 2.61082 52.2798 -1.28145 19.2847 -0.271689 2.43685 2.29272 -2.57616 -16.5195 0.0 0.0 0.0 12.5254 -15.7865 1.71388 -4.34814 0.154446 0.649275 34.7241 26.174 -4.66694 -39.3406 0.0 0.0 -0.0 0.0 -0.0 17.2043 6.10822 1.05771 -12.7796 -0.311781 -1.93238 34.3437 -6.43166 4.33466 -39.9314 0.0 0.0 0.0 0.0 0.0 
2457.06472079 743.29 -1469.99926467 -55.7930533385 79.4596935537 50.6733249458 3.9773 0.822436 3.8408 3.98532 0.576559 3.88526 4.01981 0.0229785 3.92767 3.99886 0.642521 3.87491 -8.65517 8.97651 -7.93215 -8.52405 22.3031 -5.79943 -0.0 0.0 -0.0 -6.83634 12.8346 -9.99393 -7.24213 -40.8008 70.1345 0.367869 -10.328 0.0332456 -31.7306 -2.11767 3.40575 5.35141 15.1778 44.1686 -0.0 0.0 -0.0 9.53298 -0.965108 -18.6516 -12.6711 21.1274 -69.606 2.61082 52.2798 -1.28145 19.2847 -0.271689 2.43685 2.29272 -2.57616 -16.5195 0.0 0.0 0.0 12.5254 -15.7865 1.71388 -4.34814 0.154446 0.649275 34.7241 26.174 -4.66694 -39.3406 0.0 0.0 -0.0 0.0 -0.0 17.2043 6.10822 1.05771 -12.7796 -0.311781 -1.93238 34.3437 -6.43166 4.33466 -39.9314 0.0 0.0 0.0 0.0 0.0 
2457.10317837 743.29 -1467.39299501 -57.768510015 79.6976437266 52.6819038715 3.9773 0.822436 3.8408 3.98532 0.576559 3.88526 4.01981 0.0229785 3.92767 3.99886 0.642521 3.87491 -8.65517 8.97651 -7.93215 -8.52405 22.3031 -5.79943 -0.0 0.0 -0.0 -6.83634 12.8346 -9.99393 -7.24213 -40.8008 70.1345 0.367869 -10.328 0.0332456 -31.7306 -2.11767 3.40575 5.35141 15.1778 44.1686 -0.0 0.0 -0.0 9.53298 -0.965108 -18.6516 -12.6711 21.1274 -69.606 2.61082 52.2798 -1.28145 19.2847 -0.271689 2.43685 2.29272 -2.57616 -16.5195 0.0 0.0 0.0 12.5254 -15.7865 1.71388 -4.34814 0.154446 0.649275 34.7241 26.174 -4.66694 -39.3406 0.0 0.0 -0.0 0.0 -0.0 17.2043 6.10822 1.05771 -12.7796 -0.311781 -1.93238 34.3437 -6.43166 4.33466 -39.9314 0.0 0.0 0.0 0.0 0.0 
2457.06310375 743.29 -1470.14973381 -55.6817708138 79.4455790287 50.5601298708 3.9773 0.822436 3.8408 3.98532 0.576559 3.88526 4.01981 0.0229785 3.92767 3.99886 0.642521 3.87491 -8.65517 8.97651 -7.93215 -8.52405 22.3031 -5.79943 -0.0 0.0 -0.0 -6.83634 12.8346 -9.99393 -7.24213 -40.8008 70.1345 0.367869 -10.328 0.0332456 -31.7306 -2.11767 3.40575 5.35141 15.1778 44.1686 -0.0 0.0 -0.0 9.53298 -0.965108 -18.6516 -12.6711 21.1274 -69.606 2.61082 52.2798 -1.28145 19.2847 -0.271689 2.43685 2.29272 -2.57616 -16.5195 0.0 0.0 0.0 12.5254 -15.7865 1.71388 -4.34814 0.154446 0.649275 34.7241 26.174 -4.66694 -39.3406 0.0 0.0 -0.0 0.0 -0.0 17.2043 6.10822 1.05771 -12.7796 -0.311781 -1.93238 34.3437 -6.43166 4.33466 -39.9314 0.0 0.0 0.0 0.0 0.0 
